<svg width="18" height="18" viewBox="0 0 18 18" fill="none" xmlns="http://www.w3.org/2000/svg">
<path d="M4.79096 15.2413C3.74868 15.2413 2.9121 14.8847 2.28125 14.1715C1.65039 13.431 1.33496 12.4435 1.33496 11.2092C1.33496 9.72811 1.81496 8.31553 2.77496 6.97153C3.73496 5.62753 5.18868 4.39325 7.1361 3.26868L8.41153 4.74982C7.4241 5.57268 6.57382 6.35439 5.86067 7.09496C5.17496 7.80811 4.80468 8.45268 4.74982 9.02868L4.91439 9.15211C5.10639 8.98753 5.4081 8.90525 5.81953 8.90525C6.45039 8.90525 6.98525 9.17953 7.4241 9.72811C7.86296 10.2767 8.08239 11.0173 8.08239 11.9498C8.08239 12.9098 7.78068 13.7053 7.17725 14.3361C6.57382 14.9395 5.77839 15.2413 4.79096 15.2413ZM13.0195 15.2413C11.9772 15.2413 11.1407 14.8847 10.5098 14.1715C9.87896 13.431 9.56353 12.4435 9.56353 11.2092C9.56353 9.72811 10.0435 8.31553 11.0035 6.97153C11.9635 5.62753 13.4172 4.39325 15.3647 3.26868L16.6401 4.74982C15.6527 5.57268 14.8024 6.35439 14.0892 7.09496C13.4035 7.80811 13.0332 8.45268 12.9784 9.02868L13.143 9.15211C13.335 8.98753 13.6367 8.90525 14.0481 8.90525C14.679 8.90525 15.2138 9.17953 15.6527 9.72811C16.0915 10.2767 16.311 11.0173 16.311 11.9498C16.311 12.9098 16.0092 13.7053 15.4058 14.3361C14.8024 14.9395 14.007 15.2413 13.0195 15.2413Z" fill="url(#paint0_linear_306_1718)"/>
<defs>
<linearGradient id="paint0_linear_306_1718" x1="1.27065" y1="7.92468" x2="14.2607" y2="7.92468" gradientUnits="userSpaceOnUse">
<stop stop-color="#660099"/>
<stop offset="1" stop-color="#932A81"/>
</linearGradient>
</defs>
</svg>
