<svg xmlns="http://www.w3.org/2000/svg" width="18" height="18" fill="none" viewBox="0 0 18 18"><path fill="url(#a)" d="M4.791 15.241q-1.563 0-2.51-1.07-.945-1.11-.946-2.962 0-2.22 1.44-4.237t4.361-3.703l1.276 1.48A32 32 0 0 0 5.86 7.096Q4.832 8.165 4.75 9.029l.164.123q.288-.246.906-.247.945 0 1.604.823.658.824.658 2.222 0 1.44-.905 2.386-.905.905-2.386.905m8.229 0q-1.565 0-2.51-1.07-.946-1.11-.946-2.962 0-2.22 1.44-4.237t4.36-3.703l1.276 1.48a32 32 0 0 0-2.55 2.346q-1.03 1.07-1.112 1.934l.165.123q.288-.246.905-.247.947 0 1.605.823.658.824.658 2.222 0 1.44-.905 2.386-.906.905-2.386.905"/><defs><linearGradient id="a" x1="1.27065" x2="14.2607" y1="7.92468" y2="7.92468" gradientUnits="userSpaceOnUse"><stop stop-color="#609"/><stop offset="1" stop-color="#932A81"/></linearGradient></defs></svg>