<svg width="24" height="24" viewBox="0 0 24 24" fill="none" xmlns="http://www.w3.org/2000/svg">
<path fill-rule="evenodd" clip-rule="evenodd" d="M8.7615 7.92003C8.87203 7.81704 8.96068 7.69284 9.02217 7.55484C9.08366 7.41684 9.11672 7.26787 9.11939 7.11682C9.12205 6.96576 9.09427 6.81572 9.03768 6.67564C8.9811 6.53555 8.89689 6.4083 8.79006 6.30148C8.68323 6.19465 8.55598 6.11043 8.4159 6.05385C8.27581 5.99727 8.12577 5.96948 7.97472 5.97215C7.82366 5.97481 7.67469 6.00787 7.53669 6.06936C7.39869 6.13085 7.27449 6.2195 7.1715 6.33003L2.295 11.205L1.5 12L2.295 12.795L7.17 17.67C7.38208 17.8751 7.6662 17.9886 7.96118 17.9862C8.25615 17.9837 8.53837 17.8656 8.74706 17.6571C8.95574 17.4486 9.07419 17.1665 9.07689 16.8715C9.07959 16.5765 8.96633 16.2923 8.7615 16.08L5.8065 13.125L21.375 13.125C21.6734 13.125 21.9595 13.0065 22.1705 12.7955C22.3815 12.5845 22.5 12.2984 22.5 12C22.5 11.7017 22.3815 11.4155 22.1705 11.2045C21.9595 10.9936 21.6734 10.875 21.375 10.875L5.8065 10.875L8.7615 7.92003Z" fill="#381C4F"/>
</svg>
