<svg width="24" height="24" viewBox="0 0 24 24" fill="none" xmlns="http://www.w3.org/2000/svg">
<path fill-rule="evenodd" clip-rule="evenodd" d="M15.2385 16.08C15.128 16.183 15.0393 16.3072 14.9778 16.4452C14.9163 16.5832 14.8833 16.7321 14.8806 16.8832C14.8779 17.0342 14.9057 17.1843 14.9623 17.3244C15.0189 17.4644 15.1031 17.5917 15.2099 17.6985C15.3168 17.8054 15.444 17.8896 15.5841 17.9462C15.7242 18.0027 15.8742 18.0305 16.0253 18.0279C16.1763 18.0252 16.3253 17.9921 16.4633 17.9306C16.6013 17.8692 16.7255 17.7805 16.8285 17.67L21.705 12.795L22.5 12L21.705 11.205L16.83 6.32997C16.6179 6.12494 16.3338 6.01141 16.0388 6.01383C15.7438 6.01626 15.4616 6.13444 15.2529 6.34292C15.0443 6.55141 14.9258 6.83352 14.9231 7.12849C14.9204 7.42346 15.0337 7.70769 15.2385 7.91997L18.1935 10.875H2.625C2.32663 10.875 2.04048 10.9935 1.82951 11.2045C1.61853 11.4155 1.5 11.7016 1.5 12C1.5 12.2983 1.61853 12.5845 1.82951 12.7955C2.04048 13.0064 2.32663 13.125 2.625 13.125H18.1935L15.2385 16.08Z" fill="#381C4F"/>
</svg>
