<svg width="32" height="32" viewBox="0 0 32 32" fill="none" xmlns="http://www.w3.org/2000/svg">
<path d="M17.8763 16L25.206 23.3277L25.2061 23.3277L25.1354 23.3984C25.3657 23.6284 25.4951 23.9405 25.4953 24.2659C25.4955 24.5914 25.3664 24.9036 25.1364 25.1339C24.9064 25.3642 24.5944 25.4936 24.2689 25.4938C23.9435 25.494 23.6313 25.3649 23.401 25.1349L17.8763 16ZM17.8763 16L25.206 8.67237C25.2061 8.67236 25.2061 8.67235 25.2061 8.67233C25.3294 8.54918 25.4272 8.40295 25.494 8.24198C25.5608 8.08101 25.5952 7.90845 25.5953 7.73416C25.5954 7.55988 25.5612 7.38728 25.4946 7.22622C25.428 7.06516 25.3304 6.91879 25.2072 6.79548C25.084 6.67216 24.9378 6.57432 24.7768 6.50752C24.6158 6.44073 24.4433 6.40629 24.269 6.40619C24.0947 6.40608 23.9221 6.4403 23.761 6.5069C23.6 6.5735 23.4536 6.67116 23.3303 6.79433L23.3303 6.79437L16.0005 14.1242L8.67276 6.79438L8.67275 6.79437C8.42372 6.54534 8.08596 6.40543 7.73377 6.40543C7.38159 6.40543 7.04383 6.54534 6.7948 6.79437C6.54576 7.0434 6.40586 7.38116 6.40586 7.73335C6.40586 8.08553 6.54576 8.42329 6.7948 8.67232L6.79481 8.67233L14.1246 16L6.79481 23.3277L6.7948 23.3277C6.67149 23.451 6.57367 23.5974 6.50694 23.7585C6.44021 23.9196 6.40586 24.0923 6.40586 24.2667C6.40586 24.4411 6.44021 24.6137 6.50694 24.7749C6.57367 24.936 6.67149 25.0823 6.7948 25.2057C7.04383 25.4547 7.38159 25.5946 7.73377 25.5946C7.90816 25.5946 8.08084 25.5602 8.24194 25.4935C8.40306 25.4268 8.54944 25.329 8.67275 25.2057L8.67276 25.2056L16.0005 17.8758L17.8763 16Z" fill="#D1D2F4" stroke="#D1D2F4" stroke-width="0.2"/>
</svg>
