<svg width="0" height="0" class="hidden">
  <symbol fill="none" xmlns="http://www.w3.org/2000/svg" viewBox="0 0 32 32" id="burger">
    <path d="M4 8H28M4 16H28M4 24H28" stroke="#381C4F" stroke-width="3" stroke-linecap="round" stroke-linejoin="round"></path>
  </symbol>

  <symbol fill="none" xmlns="http://www.w3.org/2000/svg" viewBox="0 0 32 32" id="cross">
     <path d="M17.8758 16L25.2056 23.3276L25.2056 23.3276L25.1349 23.3984C25.3652 23.6283 25.4946 23.9404 25.4948 24.2659C25.495 24.5913 25.3659 24.9035 25.136 25.1338C24.906 25.3641 24.5939 25.4936 24.2684 25.4938C23.943 25.494 23.6308 25.3649 23.4005 25.1349L17.8758 16ZM17.8758 16L25.2056 8.67231C25.3289 8.54914 25.4267 8.4029 25.4935 8.24192C25.5603 8.08094 25.5947 7.90839 25.5948 7.7341C25.595 7.55982 25.5607 7.38722 25.4941 7.22616C25.4275 7.0651 25.3299 6.91873 25.2067 6.79542C25.0835 6.6721 24.9373 6.57426 24.7763 6.50746C24.6153 6.44067 24.4428 6.40623 24.2685 6.40613C24.0942 6.40602 23.9216 6.44024 23.7606 6.50684C23.5995 6.57343 23.4531 6.6711 23.3298 6.79426L23.3298 6.79431L16 14.1241L8.67227 6.79432L8.67226 6.79431C8.42323 6.54528 8.08547 6.40537 7.73329 6.40537C7.3811 6.40537 7.04334 6.54528 6.79431 6.79431C6.54528 7.04334 6.40537 7.3811 6.40537 7.73329C6.40537 8.08547 6.54528 8.42323 6.79431 8.67226L6.79432 8.67227L14.1241 16L6.79432 23.3276L6.79431 23.3276C6.671 23.451 6.57319 23.5973 6.50645 23.7584C6.43972 23.9196 6.40537 24.0922 6.40537 24.2666C6.40537 24.441 6.43972 24.6137 6.50645 24.7748C6.57319 24.9359 6.671 25.0823 6.79431 25.2056C7.04334 25.4546 7.3811 25.5945 7.73329 25.5945C7.90767 25.5945 8.08035 25.5602 8.24146 25.4935C8.40257 25.4267 8.54896 25.3289 8.67226 25.2056L8.67227 25.2056L16 17.8758L17.8758 16Z" fill="#D1D2F4" stroke="#D1D2F4" stroke-width="0.2" />
</svg>
  </symbol>
</svg>