<svg aria-hidden="true" style="position: absolute; width: 0; height: 0; overflow: hidden;" version="1.1" xmlns="http://www.w3.org/2000/svg" xmlns:xlink="http://www.w3.org/1999/xlink">
<defs>
<symbol id="burger" viewBox="0 0 32 32" >
<path d="M4 8H28M4 16H28M4 24H28" stroke-width="3" stroke-linecap="round" stroke-linejoin="round"></path>
</symbol>
<symbol id="cross" viewBox="0 0 32 32" >
<path d="M 17.8763 16 L 25.206 23.3277 L 25.2061 23.3277 L 25.1354 23.3984 C 25.3657 23.6284 25.4951 23.9405 25.4953 24.2659 C 25.4955 24.5914 25.3664 24.9036 25.1364 25.1339 C 24.9064 25.3642 24.5944 25.4936 24.2689 25.4938 C 23.9435 25.494 23.6313 25.3649 23.401 25.1349 L 15.9 17.9 Z M 17.8763 16 L 25.206 8.6724 C 25.2061 8.6724 25.2061 8.6723 25.2061 8.6723 C 25.3294 8.5492 25.4272 8.403 25.494 8.242 C 25.5608 8.081 25.5952 7.9085 25.5953 7.7342 C 25.5954 7.5599 25.5612 7.3873 25.4946 7.2262 C 25.428 7.0652 25.3304 6.9188 25.2072 6.7955 C 25.084 6.6722 24.9378 6.5743 24.7768 6.5075 C 24.6158 6.4407 24.4433 6.4063 24.269 6.4062 C 24.0947 6.4061 23.9221 6.4403 23.761 6.5069 C 23.6 6.5735 23.4536 6.6712 23.3303 6.7943 L 23.3303 6.7944 L 16.0005 14.1242 L 8.6728 6.7944 L 8.6728 6.7944 C 8.4237 6.5453 8.086 6.4054 7.7338 6.4054 C 7.3816 6.4054 7.0438 6.5453 6.7948 6.7944 C 6.5458 7.0434 6.4059 7.3812 6.4059 7.7333 C 6.4059 8.0855 6.5458 8.4233 6.7948 8.6723 L 6.7948 8.6723 L 14.1246 16 L 6.7948 23.3277 L 6.7948 23.3277 C 6.6715 23.451 6.5737 23.5974 6.5069 23.7585 C 6.4402 23.9196 6.4059 24.0923 6.4059 24.2667 C 6.4059 24.4411 6.4402 24.6137 6.5069 24.7749 C 6.5737 24.936 6.6715 25.0823 6.7948 25.2057 C 7.0438 25.4547 7.3816 25.5946 7.7338 25.5946 C 7.9082 25.5946 8.0808 25.5602 8.2419 25.4935 C 8.4031 25.4268 8.5494 25.329 8.6728 25.2057 L 8.6728 25.2056 L 16.0005 17.8758 L 17.8763 16 Z"  stroke-width="0.2"></path>
</symbol>
<symbol id="google-play-text" viewBox="0 0 93 30" >
<path d="M7.77979 4.53136C7.77979 5.38745 7.56211 6.13653 7.01792 6.67158C6.3649 7.31365 5.60303 7.63468 4.62349 7.63468C3.64395 7.63468 2.88208 7.31365 2.22905 6.67158C1.57602 6.02952 1.24951 5.28044 1.24951 4.31734C1.24951 3.35424 1.57602 2.60517 2.22905 1.9631C2.88208 1.32103 3.64395 1 4.62349 1C5.05884 1 5.49419 1.10701 5.92954 1.32103C6.3649 1.53505 6.69141 1.74908 6.90908 2.07011L6.36489 2.60516C5.92954 2.07011 5.38535 1.85609 4.62349 1.85609C3.97046 1.85609 3.31743 2.07011 2.88208 2.60516C2.33789 3.03321 2.12021 3.67528 2.12021 4.42435C2.12021 5.17343 2.33789 5.8155 2.88208 6.24354C3.42627 6.67158 3.97046 6.99262 4.62349 6.99262C5.38535 6.99262 5.92954 6.77859 6.47373 6.24354C6.80025 5.92251 7.01792 5.49446 7.01792 4.95941H4.62349V4.10332H7.77979V4.53136ZM12.7863 1.85609H9.84771V3.8893H12.5687V4.63837H9.84771V6.67158H12.7863V7.52767H8.97701V1.10701H12.7863V1.85609ZM16.378 7.52767H15.5073V1.85609H13.657V1.10701H18.2282V1.85609H16.378V7.52767ZM21.3845 7.52767V1.10701H22.2552V7.52767H21.3845ZM25.9557 7.52767H25.085V1.85609H23.2348V1.10701H27.6971V1.85609H25.8469V7.52767H25.9557ZM36.2953 6.67158C35.6423 7.31365 34.8805 7.63468 33.9009 7.63468C32.9214 7.63468 32.1595 7.31365 31.5065 6.67158C30.8534 6.02952 30.5269 5.28044 30.5269 4.31734C30.5269 3.35424 30.8534 2.60517 31.5065 1.9631C32.1595 1.32103 32.9214 1 33.9009 1C34.8805 1 35.6423 1.32103 36.2953 1.9631C36.9484 2.60517 37.2749 3.35424 37.2749 4.31734C37.2749 5.28044 36.9484 6.02952 36.2953 6.67158ZM32.1595 6.13653C32.5949 6.56457 33.2479 6.8856 33.9009 6.8856C34.5539 6.8856 35.207 6.67158 35.6423 6.13653C36.0777 5.70848 36.4042 5.06642 36.4042 4.31734C36.4042 3.56826 36.1865 2.9262 35.6423 2.49815C35.207 2.07011 34.5539 1.74908 33.9009 1.74908C33.2479 1.74908 32.5949 1.9631 32.1595 2.49815C31.7241 2.9262 31.3976 3.56826 31.3976 4.31734C31.3976 5.06642 31.6153 5.70848 32.1595 6.13653ZM38.4721 7.52767V1.10701H39.4516L42.6079 6.13653V1.10701H43.4786V7.52767H42.6079L39.234 2.28413V7.52767H38.4721Z"  stroke-width="0.3" stroke-miterlimit="10"></path>
<path d="M30.3093 16.9447C27.6972 16.9447 25.6293 18.8709 25.6293 21.5462C25.6293 24.1144 27.6972 26.1476 30.3093 26.1476C32.9215 26.1476 34.9894 24.2214 34.9894 21.5462C34.9894 18.7639 32.9215 16.9447 30.3093 16.9447ZM30.3093 24.2214C28.8945 24.2214 27.6972 23.0443 27.6972 21.4391C27.6972 19.834 28.8945 18.6569 30.3093 18.6569C31.7242 18.6569 32.9215 19.727 32.9215 21.4391C32.9215 23.0443 31.7242 24.2214 30.3093 24.2214ZM20.1874 16.9447C17.5753 16.9447 15.5074 18.8709 15.5074 21.5462C15.5074 24.1144 17.5753 26.1476 20.1874 26.1476C22.7995 26.1476 24.8674 24.2214 24.8674 21.5462C24.8674 18.7639 22.7995 16.9447 20.1874 16.9447ZM20.1874 24.2214C18.7725 24.2214 17.5753 23.0443 17.5753 21.4391C17.5753 19.834 18.7725 18.6569 20.1874 18.6569C21.6023 18.6569 22.7995 19.727 22.7995 21.4391C22.7995 23.0443 21.6023 24.2214 20.1874 24.2214ZM8.1064 18.3358V20.262H12.7864C12.6776 21.3321 12.2422 22.1882 11.6981 22.7233C11.045 23.3653 9.95665 24.1144 8.1064 24.1144C5.16778 24.1144 2.99102 21.8672 2.99102 18.9779C2.99102 16.0886 5.27662 13.8414 8.1064 13.8414C9.63014 13.8414 10.8274 14.4834 11.6981 15.2325L13.1129 13.8414C11.9157 12.7712 10.392 11.9152 8.21524 11.9152C4.29707 11.9152 0.923096 15.1255 0.923096 18.9779C0.923096 22.8303 4.29707 26.0406 8.21524 26.0406C10.392 26.0406 11.9157 25.3985 13.2218 24.0074C14.5278 22.7233 14.9632 20.9041 14.9632 19.5129C14.9632 19.0849 14.9632 18.6569 14.8544 18.3358H8.1064ZM57.5188 19.834C57.0835 18.7639 55.9951 16.9447 53.6007 16.9447C51.2062 16.9447 49.2472 18.7639 49.2472 21.5462C49.2472 24.1144 51.2062 26.1476 53.8183 26.1476C55.8863 26.1476 57.1923 24.8635 57.6277 24.1144L56.1039 23.0443C55.5598 23.7934 54.9067 24.3284 53.8183 24.3284C52.73 24.3284 52.0769 23.9004 51.5327 22.9373L57.7365 20.369L57.5188 19.834ZM51.2062 21.3321C51.2062 19.62 52.6211 18.6569 53.6007 18.6569C54.3625 18.6569 55.1244 19.0849 55.3421 19.62L51.2062 21.3321ZM46.0909 25.7196H48.1588V12.3432H46.0909V25.7196ZM42.8257 17.9078C42.2815 17.3727 41.4108 16.8377 40.3224 16.8377C38.0368 16.8377 35.8601 18.8709 35.8601 21.4391C35.8601 24.0074 37.928 25.9336 40.3224 25.9336C41.4108 25.9336 42.2815 25.3985 42.7169 24.8635H42.8257V25.5056C42.8257 27.2177 41.8462 28.1808 40.3224 28.1808C39.1252 28.1808 38.2545 27.3247 38.0368 26.5757L36.2954 27.3247C36.8396 28.5019 38.1457 30 40.4313 30C42.8257 30 44.7848 28.6089 44.7848 25.2915V17.1587H42.8257V17.9078ZM40.4313 24.2214C39.0164 24.2214 37.8192 23.0443 37.8192 21.4391C37.8192 19.834 39.0164 18.6569 40.4313 18.6569C41.8462 18.6569 42.9345 19.834 42.9345 21.4391C42.9345 23.0443 41.8462 24.2214 40.4313 24.2214ZM66.9877 12.3432H62.09V25.7196H64.158V20.6901H66.9877C69.2733 20.6901 71.4501 19.0849 71.4501 16.5166C71.4501 13.9484 69.2733 12.3432 66.9877 12.3432ZM67.0966 18.7639H64.158V14.1624H67.0966C68.6203 14.1624 69.491 15.4465 69.491 16.4096C69.3822 17.5867 68.5115 18.7639 67.0966 18.7639ZM79.6129 16.8377C78.0892 16.8377 76.5655 17.4797 76.0213 18.8709L77.8715 19.62C78.3069 18.8709 78.9599 18.6569 79.7218 18.6569C80.8102 18.6569 81.7897 19.2989 81.8985 20.369V20.476C81.572 20.262 80.7013 19.941 79.8306 19.941C77.8715 19.941 75.9125 21.0111 75.9125 22.9373C75.9125 24.7565 77.545 25.9336 79.2864 25.9336C80.7013 25.9336 81.3544 25.2915 81.8985 24.6495H82.0074V25.7196H83.9665V20.5831C83.7488 18.2288 81.8985 16.8377 79.6129 16.8377ZM79.3953 24.2214C78.7422 24.2214 77.7627 23.9004 77.7627 23.0443C77.7627 21.9742 78.9599 21.6532 79.9395 21.6532C80.8102 21.6532 81.2455 21.8672 81.7897 22.0812C81.572 23.3653 80.4836 24.2214 79.3953 24.2214ZM90.8232 17.1587L88.5377 22.9373H88.4288L86.0344 17.1587H83.8576L87.4493 25.2915L85.3814 29.786H87.4493L93 17.1587H90.8232ZM72.5385 25.7196H74.6064V12.3432H72.5385V25.7196Z"></path>
</symbol>

<symbol id="google-play-text-white" viewBox="0 0 93 30" >
<path d="M7.77979 4.53136C7.77979 5.38745 7.56211 6.13653 7.01792 6.67158C6.3649 7.31365 5.60303 7.63468 4.62349 7.63468C3.64395 7.63468 2.88208 7.31365 2.22905 6.67158C1.57602 6.02952 1.24951 5.28044 1.24951 4.31734C1.24951 3.35424 1.57602 2.60517 2.22905 1.9631C2.88208 1.32103 3.64395 1 4.62349 1C5.05884 1 5.49419 1.10701 5.92954 1.32103C6.3649 1.53505 6.69141 1.74908 6.90908 2.07011L6.36489 2.60516C5.92954 2.07011 5.38535 1.85609 4.62349 1.85609C3.97046 1.85609 3.31743 2.07011 2.88208 2.60516C2.33789 3.03321 2.12021 3.67528 2.12021 4.42435C2.12021 5.17343 2.33789 5.8155 2.88208 6.24354C3.42627 6.67158 3.97046 6.99262 4.62349 6.99262C5.38535 6.99262 5.92954 6.77859 6.47373 6.24354C6.80025 5.92251 7.01792 5.49446 7.01792 4.95941H4.62349V4.10332H7.77979V4.53136ZM12.7863 1.85609H9.84771V3.8893H12.5687V4.63837H9.84771V6.67158H12.7863V7.52767H8.97701V1.10701H12.7863V1.85609ZM16.378 7.52767H15.5073V1.85609H13.657V1.10701H18.2282V1.85609H16.378V7.52767ZM21.3845 7.52767V1.10701H22.2552V7.52767H21.3845ZM25.9557 7.52767H25.085V1.85609H23.2348V1.10701H27.6971V1.85609H25.8469V7.52767H25.9557ZM36.2953 6.67158C35.6423 7.31365 34.8805 7.63468 33.9009 7.63468C32.9214 7.63468 32.1595 7.31365 31.5065 6.67158C30.8534 6.02952 30.5269 5.28044 30.5269 4.31734C30.5269 3.35424 30.8534 2.60517 31.5065 1.9631C32.1595 1.32103 32.9214 1 33.9009 1C34.8805 1 35.6423 1.32103 36.2953 1.9631C36.9484 2.60517 37.2749 3.35424 37.2749 4.31734C37.2749 5.28044 36.9484 6.02952 36.2953 6.67158ZM32.1595 6.13653C32.5949 6.56457 33.2479 6.8856 33.9009 6.8856C34.5539 6.8856 35.207 6.67158 35.6423 6.13653C36.0777 5.70848 36.4042 5.06642 36.4042 4.31734C36.4042 3.56826 36.1865 2.9262 35.6423 2.49815C35.207 2.07011 34.5539 1.74908 33.9009 1.74908C33.2479 1.74908 32.5949 1.9631 32.1595 2.49815C31.7241 2.9262 31.3976 3.56826 31.3976 4.31734C31.3976 5.06642 31.6153 5.70848 32.1595 6.13653ZM38.4721 7.52767V1.10701H39.4516L42.6079 6.13653V1.10701H43.4786V7.52767H42.6079L39.234 2.28413V7.52767H38.4721Z" fill="#ffffff" stroke="#ffffff" stroke-width="0.3" stroke-miterlimit="10"></path>
<path d="M30.3093 16.9447C27.6972 16.9447 25.6293 18.8709 25.6293 21.5462C25.6293 24.1144 27.6972 26.1476 30.3093 26.1476C32.9215 26.1476 34.9894 24.2214 34.9894 21.5462C34.9894 18.7639 32.9215 16.9447 30.3093 16.9447ZM30.3093 24.2214C28.8945 24.2214 27.6972 23.0443 27.6972 21.4391C27.6972 19.834 28.8945 18.6569 30.3093 18.6569C31.7242 18.6569 32.9215 19.727 32.9215 21.4391C32.9215 23.0443 31.7242 24.2214 30.3093 24.2214ZM20.1874 16.9447C17.5753 16.9447 15.5074 18.8709 15.5074 21.5462C15.5074 24.1144 17.5753 26.1476 20.1874 26.1476C22.7995 26.1476 24.8674 24.2214 24.8674 21.5462C24.8674 18.7639 22.7995 16.9447 20.1874 16.9447ZM20.1874 24.2214C18.7725 24.2214 17.5753 23.0443 17.5753 21.4391C17.5753 19.834 18.7725 18.6569 20.1874 18.6569C21.6023 18.6569 22.7995 19.727 22.7995 21.4391C22.7995 23.0443 21.6023 24.2214 20.1874 24.2214ZM8.1064 18.3358V20.262H12.7864C12.6776 21.3321 12.2422 22.1882 11.6981 22.7233C11.045 23.3653 9.95665 24.1144 8.1064 24.1144C5.16778 24.1144 2.99102 21.8672 2.99102 18.9779C2.99102 16.0886 5.27662 13.8414 8.1064 13.8414C9.63014 13.8414 10.8274 14.4834 11.6981 15.2325L13.1129 13.8414C11.9157 12.7712 10.392 11.9152 8.21524 11.9152C4.29707 11.9152 0.923096 15.1255 0.923096 18.9779C0.923096 22.8303 4.29707 26.0406 8.21524 26.0406C10.392 26.0406 11.9157 25.3985 13.2218 24.0074C14.5278 22.7233 14.9632 20.9041 14.9632 19.5129C14.9632 19.0849 14.9632 18.6569 14.8544 18.3358H8.1064ZM57.5188 19.834C57.0835 18.7639 55.9951 16.9447 53.6007 16.9447C51.2062 16.9447 49.2472 18.7639 49.2472 21.5462C49.2472 24.1144 51.2062 26.1476 53.8183 26.1476C55.8863 26.1476 57.1923 24.8635 57.6277 24.1144L56.1039 23.0443C55.5598 23.7934 54.9067 24.3284 53.8183 24.3284C52.73 24.3284 52.0769 23.9004 51.5327 22.9373L57.7365 20.369L57.5188 19.834ZM51.2062 21.3321C51.2062 19.62 52.6211 18.6569 53.6007 18.6569C54.3625 18.6569 55.1244 19.0849 55.3421 19.62L51.2062 21.3321ZM46.0909 25.7196H48.1588V12.3432H46.0909V25.7196ZM42.8257 17.9078C42.2815 17.3727 41.4108 16.8377 40.3224 16.8377C38.0368 16.8377 35.8601 18.8709 35.8601 21.4391C35.8601 24.0074 37.928 25.9336 40.3224 25.9336C41.4108 25.9336 42.2815 25.3985 42.7169 24.8635H42.8257V25.5056C42.8257 27.2177 41.8462 28.1808 40.3224 28.1808C39.1252 28.1808 38.2545 27.3247 38.0368 26.5757L36.2954 27.3247C36.8396 28.5019 38.1457 30 40.4313 30C42.8257 30 44.7848 28.6089 44.7848 25.2915V17.1587H42.8257V17.9078ZM40.4313 24.2214C39.0164 24.2214 37.8192 23.0443 37.8192 21.4391C37.8192 19.834 39.0164 18.6569 40.4313 18.6569C41.8462 18.6569 42.9345 19.834 42.9345 21.4391C42.9345 23.0443 41.8462 24.2214 40.4313 24.2214ZM66.9877 12.3432H62.09V25.7196H64.158V20.6901H66.9877C69.2733 20.6901 71.4501 19.0849 71.4501 16.5166C71.4501 13.9484 69.2733 12.3432 66.9877 12.3432ZM67.0966 18.7639H64.158V14.1624H67.0966C68.6203 14.1624 69.491 15.4465 69.491 16.4096C69.3822 17.5867 68.5115 18.7639 67.0966 18.7639ZM79.6129 16.8377C78.0892 16.8377 76.5655 17.4797 76.0213 18.8709L77.8715 19.62C78.3069 18.8709 78.9599 18.6569 79.7218 18.6569C80.8102 18.6569 81.7897 19.2989 81.8985 20.369V20.476C81.572 20.262 80.7013 19.941 79.8306 19.941C77.8715 19.941 75.9125 21.0111 75.9125 22.9373C75.9125 24.7565 77.545 25.9336 79.2864 25.9336C80.7013 25.9336 81.3544 25.2915 81.8985 24.6495H82.0074V25.7196H83.9665V20.5831C83.7488 18.2288 81.8985 16.8377 79.6129 16.8377ZM79.3953 24.2214C78.7422 24.2214 77.7627 23.9004 77.7627 23.0443C77.7627 21.9742 78.9599 21.6532 79.9395 21.6532C80.8102 21.6532 81.2455 21.8672 81.7897 22.0812C81.572 23.3653 80.4836 24.2214 79.3953 24.2214ZM90.8232 17.1587L88.5377 22.9373H88.4288L86.0344 17.1587H83.8576L87.4493 25.2915L85.3814 29.786H87.4493L93 17.1587H90.8232ZM72.5385 25.7196H74.6064V12.3432H72.5385V25.7196Z" fill="#ffffff"></path>
</symbol>

  <symbol id="arrow-left-swiper" viewBox="0 0 24 24" >
    <path fill-rule="evenodd" clip-rule="evenodd" d="M8.7615 7.92003C8.87203 7.81704 8.96068 7.69284 9.02217 7.55484C9.08366 7.41684 9.11672 7.26787 9.11939 7.11682C9.12205 6.96576 9.09427 6.81572 9.03768 6.67564C8.9811 6.53555 8.89689 6.4083 8.79006 6.30148C8.68323 6.19465 8.55598 6.11043 8.4159 6.05385C8.27581 5.99727 8.12577 5.96948 7.97472 5.97215C7.82366 5.97481 7.67469 6.00787 7.53669 6.06936C7.39869 6.13085 7.27449 6.2195 7.1715 6.33003L2.295 11.205L1.5 12L2.295 12.795L7.17 17.67C7.38208 17.8751 7.6662 17.9886 7.96118 17.9862C8.25615 17.9837 8.53837 17.8656 8.74706 17.6571C8.95574 17.4486 9.07419 17.1665 9.07689 16.8715C9.07959 16.5765 8.96633 16.2923 8.7615 16.08L5.8065 13.125L21.375 13.125C21.6734 13.125 21.9595 13.0065 22.1705 12.7955C22.3815 12.5845 22.5 12.2984 22.5 12C22.5 11.7017 22.3815 11.4155 22.1705 11.2045C21.9595 10.9936 21.6734 10.875 21.375 10.875L5.8065 10.875L8.7615 7.92003Z"></path>
  </symbol>

  <symbol id="arrow-right-swiper" viewBox="0 0 24 24" >
    <path fill-rule="evenodd" clip-rule="evenodd" d="M15.2385 16.08C15.128 16.183 15.0393 16.3072 14.9778 16.4452C14.9163 16.5832 14.8833 16.7321 14.8806 16.8832C14.8779 17.0342 14.9057 17.1843 14.9623 17.3244C15.0189 17.4644 15.1031 17.5917 15.2099 17.6985C15.3168 17.8054 15.444 17.8896 15.5841 17.9462C15.7242 18.0027 15.8742 18.0305 16.0253 18.0279C16.1763 18.0252 16.3253 17.9921 16.4633 17.9306C16.6013 17.8692 16.7255 17.7805 16.8285 17.67L21.705 12.795L22.5 12L21.705 11.205L16.83 6.32997C16.6179 6.12494 16.3338 6.01141 16.0388 6.01383C15.7438 6.01626 15.4616 6.13444 15.2529 6.34292C15.0443 6.55141 14.9258 6.83352 14.9231 7.12849C14.9204 7.42346 15.0337 7.70769 15.2385 7.91997L18.1935 10.875H2.625C2.32663 10.875 2.04048 10.9935 1.82951 11.2045C1.61853 11.4155 1.5 11.7016 1.5 12C1.5 12.2983 1.61853 12.5845 1.82951 12.7955C2.04048 13.0064 2.32663 13.125 2.625 13.125H18.1935L15.2385 16.08Z" ></path>
  </symbol>


<symbol  id="arrow-left" viewBox="0 0 40 40" >
<rect x="39.5" y="39.5" width="39" height="39" rx="19.5" transform="rotate(-180 39.5 39.5)" fill="#D1D2F4" fill-opacity=".5"/>
<rect x="39.5" y="39.5" width="39" height="39" rx="19.5" transform="rotate(-180 39.5 39.5)" stroke="#381C4F"/>
<path fill-rule="evenodd" clip-rule="evenodd" d="M16.762 15.92a1.126 1.126 0 1 0-1.59-1.59l-4.877 4.875L9.5 20l.795.795 4.875 4.875a1.125 1.125 0 0 0 1.592-1.59l-2.956-2.955h15.569a1.125 1.125 0 1 0 0-2.25H13.806l2.956-2.955Z" fill="#381C4F"/>
</symbol>

<symbol  id="arrow-right" viewBox="0 0 40 40"  >
<rect x=".5" y=".5" width="39" height="39" rx="19.5" fill="#D1D2F4" fill-opacity=".5"/>
<rect x=".5" y=".5" width="39" height="39" rx="19.5" stroke="#381C4F"/>
<path fill-rule="evenodd" clip-rule="evenodd" d="M23.238 24.08a1.126 1.126 0 1 0 1.59 1.59l4.877-4.875L30.5 20l-.795-.795-4.875-4.875a1.125 1.125 0 0 0-1.591 1.59l2.954 2.955H10.626a1.125 1.125 0 1 0 0 2.25h15.569l-2.956 2.955Z" fill="#381C4F"/>
</symbol>


<symbol  id="get-it-on" width="43" height="8" viewBox="0 0 43 8" fill="none">
  <path d="M6.77991 4.53136C6.77991 5.38745 6.56224 6.13653 6.01805 6.67158C5.36502 7.31365 4.60315 7.63468 3.62361 7.63468C2.64407 7.63468 1.8822 7.31365 1.22917 6.67158C0.576145 6.02952 0.249634 5.28044 0.249634 4.31734C0.249634 3.35424 0.576145 2.60517 1.22917 1.9631C1.8822 1.32103 2.64407 1 3.62361 1C4.05896 1 4.49431 1.10701 4.92967 1.32103C5.36502 1.53505 5.69153 1.74908 5.90921 2.07011L5.36502 2.60516C4.92966 2.07011 4.38548 1.85609 3.62361 1.85609C2.97058 1.85609 2.31756 2.07011 1.8822 2.60516C1.33801 3.03321 1.12034 3.67528 1.12034 4.42435C1.12034 5.17343 1.33801 5.8155 1.8822 6.24354C2.42639 6.67158 2.97058 6.99262 3.62361 6.99262C4.38548 6.99262 4.92967 6.77859 5.47386 6.24354C5.80037 5.92251 6.01805 5.49446 6.01805 4.95941H3.62361V4.10332H6.77991V4.53136ZM11.7865 1.85609H8.84783V3.8893H11.5688V4.63837H8.84783V6.67158H11.7865V7.52767H7.97713V1.10701H11.7865V1.85609ZM15.3781 7.52767H14.5074V1.85609H12.6572V1.10701H17.2284V1.85609H15.3781V7.52767ZM20.3847 7.52767V1.10701H21.2554V7.52767H20.3847ZM24.9559 7.52767H24.0851V1.85609H22.2349V1.10701H26.6973V1.85609H24.847V7.52767H24.9559ZM35.2955 6.67158C34.6424 7.31365 33.8806 7.63468 32.901 7.63468C31.9215 7.63468 31.1596 7.31365 30.5066 6.67158C29.8536 6.02952 29.5271 5.28044 29.5271 4.31734C29.5271 3.35424 29.8536 2.60517 30.5066 1.9631C31.1596 1.32103 31.9215 1 32.901 1C33.8806 1 34.6424 1.32103 35.2955 1.9631C35.9485 2.60517 36.275 3.35424 36.275 4.31734C36.275 5.28044 35.9485 6.02952 35.2955 6.67158ZM31.1596 6.13653C31.595 6.56457 32.248 6.8856 32.901 6.8856C33.5541 6.8856 34.2071 6.67158 34.6424 6.13653C35.0778 5.70848 35.4043 5.06642 35.4043 4.31734C35.4043 3.56826 35.1866 2.9262 34.6424 2.49815C34.2071 2.07011 33.5541 1.74908 32.901 1.74908C32.248 1.74908 31.595 1.9631 31.1596 2.49815C30.7243 2.9262 30.3978 3.56826 30.3978 4.31734C30.3978 5.06642 30.6154 5.70848 31.1596 6.13653ZM37.4722 7.52767V1.10701H38.4518L41.6081 6.13653V1.10701H42.4788V7.52767H41.6081L38.2341 2.28413V7.52767H37.4722Z" fill="#F1F2FC" stroke="#F1F2FC" stroke-width="0.3" stroke-miterlimit="10"/>
  </symbol>

<symbol    id="text-button-google" width="93" height="19" viewBox="0 0 93 19" fill="none" >
<mask id="path-1-inside-1_583_60" fill="white">
<path d="M30.3093 5.94456C27.6972 5.94456 25.6293 7.87075 25.6293 10.546C25.6293 13.1143 27.6972 15.1475 30.3093 15.1475C32.9215 15.1475 34.9894 13.2213 34.9894 10.546C34.9894 7.76374 32.9215 5.94456 30.3093 5.94456ZM30.3093 13.2213C28.8945 13.2213 27.6972 12.0442 27.6972 10.439C27.6972 8.83385 28.8945 7.65673 30.3093 7.65673C31.7242 7.65673 32.9215 8.72684 32.9215 10.439C32.9215 12.0442 31.7242 13.2213 30.3093 13.2213ZM20.1874 5.94456C17.5753 5.94456 15.5074 7.87075 15.5074 10.546C15.5074 13.1143 17.5753 15.1475 20.1874 15.1475C22.7995 15.1475 24.8674 13.2213 24.8674 10.546C24.8674 7.76374 22.7995 5.94456 20.1874 5.94456ZM20.1874 13.2213C18.7725 13.2213 17.5753 12.0442 17.5753 10.439C17.5753 8.83385 18.7725 7.65673 20.1874 7.65673C21.6023 7.65673 22.7995 8.72684 22.7995 10.439C22.7995 12.0442 21.6023 13.2213 20.1874 13.2213ZM8.1064 7.3357V9.2619H12.7864C12.6776 10.332 12.2422 11.1881 11.6981 11.7232C11.045 12.3652 9.95665 13.1143 8.1064 13.1143C5.16778 13.1143 2.99102 10.8671 2.99102 7.97777C2.99102 5.08847 5.27662 2.84124 8.1064 2.84124C9.63014 2.84124 10.8274 3.4833 11.6981 4.23238L13.1129 2.84124C11.9157 1.77113 10.392 0.915039 8.21524 0.915039C4.29707 0.915039 0.923096 4.12537 0.923096 7.97777C0.923096 11.8302 4.29707 15.0405 8.21524 15.0405C10.392 15.0405 11.9157 14.3984 13.2218 13.0073C14.5278 11.7232 14.9632 9.90396 14.9632 8.51282C14.9632 8.08478 14.9632 7.65673 14.8544 7.3357H8.1064ZM57.5188 8.83385C57.0835 7.76374 55.9951 5.94456 53.6007 5.94456C51.2062 5.94456 49.2472 7.76374 49.2472 10.546C49.2472 13.1143 51.2062 15.1475 53.8183 15.1475C55.8863 15.1475 57.1923 13.8634 57.6277 13.1143L56.1039 12.0442C55.5598 12.7933 54.9067 13.3283 53.8183 13.3283C52.73 13.3283 52.0769 12.9003 51.5327 11.9372L57.7365 9.36891L57.5188 8.83385ZM51.2062 10.332C51.2062 8.61983 52.6211 7.65673 53.6007 7.65673C54.3625 7.65673 55.1244 8.08478 55.3421 8.61983L51.2062 10.332ZM46.0909 14.7195H48.1588V1.34308H46.0909V14.7195ZM42.8257 6.90766C42.2815 6.3726 41.4108 5.83755 40.3224 5.83755C38.0368 5.83755 35.8601 7.87075 35.8601 10.439C35.8601 13.0073 37.928 14.9335 40.3224 14.9335C41.4108 14.9335 42.2815 14.3984 42.7169 13.8634H42.8257V14.5054C42.8257 16.2176 41.8462 17.1807 40.3224 17.1807C39.1252 17.1807 38.2545 16.3246 38.0368 15.5755L36.2954 16.3246C36.8396 17.5017 38.1457 18.9999 40.4313 18.9999C42.8257 18.9999 44.7848 17.6088 44.7848 14.2914V6.15858H42.8257V6.90766ZM40.4313 13.2213C39.0164 13.2213 37.8192 12.0442 37.8192 10.439C37.8192 8.83385 39.0164 7.65673 40.4313 7.65673C41.8462 7.65673 42.9345 8.83385 42.9345 10.439C42.9345 12.0442 41.8462 13.2213 40.4313 13.2213ZM66.9877 1.34308H62.09V14.7195H64.158V9.68994H66.9877C69.2733 9.68994 71.4501 8.08478 71.4501 5.51651C71.4501 2.94825 69.2733 1.34308 66.9877 1.34308ZM67.0966 7.76374H64.158V3.16227H67.0966C68.6203 3.16227 69.491 4.4464 69.491 5.4095C69.3822 6.58662 68.5115 7.76374 67.0966 7.76374ZM79.6129 5.83755C78.0892 5.83755 76.5655 6.47961 76.0213 7.87075L77.8715 8.61983C78.3069 7.87075 78.9599 7.65673 79.7218 7.65673C80.8102 7.65673 81.7897 8.2988 81.8985 9.36891V9.47592C81.572 9.2619 80.7013 8.94086 79.8306 8.94086C77.8715 8.94086 75.9125 10.011 75.9125 11.9372C75.9125 13.7564 77.545 14.9335 79.2864 14.9335C80.7013 14.9335 81.3544 14.2914 81.8985 13.6493H82.0074V14.7195H83.9665V9.58293C83.7488 7.22869 81.8985 5.83755 79.6129 5.83755ZM79.3953 13.2213C78.7422 13.2213 77.7627 12.9003 77.7627 12.0442C77.7627 10.9741 78.9599 10.653 79.9395 10.653C80.8102 10.653 81.2455 10.8671 81.7897 11.0811C81.572 12.3652 80.4836 13.2213 79.3953 13.2213ZM90.8232 6.15858L88.5377 11.9372H88.4288L86.0344 6.15858H83.8576L87.4493 14.2914L85.3814 18.7859H87.4493L93 6.15858H90.8232ZM72.5385 14.7195H74.6064V1.34308H72.5385V14.7195Z"/>
</mask>
<path d="M30.3093 5.94456C27.6972 5.94456 25.6293 7.87075 25.6293 10.546C25.6293 13.1143 27.6972 15.1475 30.3093 15.1475C32.9215 15.1475 34.9894 13.2213 34.9894 10.546C34.9894 7.76374 32.9215 5.94456 30.3093 5.94456ZM30.3093 13.2213C28.8945 13.2213 27.6972 12.0442 27.6972 10.439C27.6972 8.83385 28.8945 7.65673 30.3093 7.65673C31.7242 7.65673 32.9215 8.72684 32.9215 10.439C32.9215 12.0442 31.7242 13.2213 30.3093 13.2213ZM20.1874 5.94456C17.5753 5.94456 15.5074 7.87075 15.5074 10.546C15.5074 13.1143 17.5753 15.1475 20.1874 15.1475C22.7995 15.1475 24.8674 13.2213 24.8674 10.546C24.8674 7.76374 22.7995 5.94456 20.1874 5.94456ZM20.1874 13.2213C18.7725 13.2213 17.5753 12.0442 17.5753 10.439C17.5753 8.83385 18.7725 7.65673 20.1874 7.65673C21.6023 7.65673 22.7995 8.72684 22.7995 10.439C22.7995 12.0442 21.6023 13.2213 20.1874 13.2213ZM8.1064 7.3357V9.2619H12.7864C12.6776 10.332 12.2422 11.1881 11.6981 11.7232C11.045 12.3652 9.95665 13.1143 8.1064 13.1143C5.16778 13.1143 2.99102 10.8671 2.99102 7.97777C2.99102 5.08847 5.27662 2.84124 8.1064 2.84124C9.63014 2.84124 10.8274 3.4833 11.6981 4.23238L13.1129 2.84124C11.9157 1.77113 10.392 0.915039 8.21524 0.915039C4.29707 0.915039 0.923096 4.12537 0.923096 7.97777C0.923096 11.8302 4.29707 15.0405 8.21524 15.0405C10.392 15.0405 11.9157 14.3984 13.2218 13.0073C14.5278 11.7232 14.9632 9.90396 14.9632 8.51282C14.9632 8.08478 14.9632 7.65673 14.8544 7.3357H8.1064ZM57.5188 8.83385C57.0835 7.76374 55.9951 5.94456 53.6007 5.94456C51.2062 5.94456 49.2472 7.76374 49.2472 10.546C49.2472 13.1143 51.2062 15.1475 53.8183 15.1475C55.8863 15.1475 57.1923 13.8634 57.6277 13.1143L56.1039 12.0442C55.5598 12.7933 54.9067 13.3283 53.8183 13.3283C52.73 13.3283 52.0769 12.9003 51.5327 11.9372L57.7365 9.36891L57.5188 8.83385ZM51.2062 10.332C51.2062 8.61983 52.6211 7.65673 53.6007 7.65673C54.3625 7.65673 55.1244 8.08478 55.3421 8.61983L51.2062 10.332ZM46.0909 14.7195H48.1588V1.34308H46.0909V14.7195ZM42.8257 6.90766C42.2815 6.3726 41.4108 5.83755 40.3224 5.83755C38.0368 5.83755 35.8601 7.87075 35.8601 10.439C35.8601 13.0073 37.928 14.9335 40.3224 14.9335C41.4108 14.9335 42.2815 14.3984 42.7169 13.8634H42.8257V14.5054C42.8257 16.2176 41.8462 17.1807 40.3224 17.1807C39.1252 17.1807 38.2545 16.3246 38.0368 15.5755L36.2954 16.3246C36.8396 17.5017 38.1457 18.9999 40.4313 18.9999C42.8257 18.9999 44.7848 17.6088 44.7848 14.2914V6.15858H42.8257V6.90766ZM40.4313 13.2213C39.0164 13.2213 37.8192 12.0442 37.8192 10.439C37.8192 8.83385 39.0164 7.65673 40.4313 7.65673C41.8462 7.65673 42.9345 8.83385 42.9345 10.439C42.9345 12.0442 41.8462 13.2213 40.4313 13.2213ZM66.9877 1.34308H62.09V14.7195H64.158V9.68994H66.9877C69.2733 9.68994 71.4501 8.08478 71.4501 5.51651C71.4501 2.94825 69.2733 1.34308 66.9877 1.34308ZM67.0966 7.76374H64.158V3.16227H67.0966C68.6203 3.16227 69.491 4.4464 69.491 5.4095C69.3822 6.58662 68.5115 7.76374 67.0966 7.76374ZM79.6129 5.83755C78.0892 5.83755 76.5655 6.47961 76.0213 7.87075L77.8715 8.61983C78.3069 7.87075 78.9599 7.65673 79.7218 7.65673C80.8102 7.65673 81.7897 8.2988 81.8985 9.36891V9.47592C81.572 9.2619 80.7013 8.94086 79.8306 8.94086C77.8715 8.94086 75.9125 10.011 75.9125 11.9372C75.9125 13.7564 77.545 14.9335 79.2864 14.9335C80.7013 14.9335 81.3544 14.2914 81.8985 13.6493H82.0074V14.7195H83.9665V9.58293C83.7488 7.22869 81.8985 5.83755 79.6129 5.83755ZM79.3953 13.2213C78.7422 13.2213 77.7627 12.9003 77.7627 12.0442C77.7627 10.9741 78.9599 10.653 79.9395 10.653C80.8102 10.653 81.2455 10.8671 81.7897 11.0811C81.572 12.3652 80.4836 13.2213 79.3953 13.2213ZM90.8232 6.15858L88.5377 11.9372H88.4288L86.0344 6.15858H83.8576L87.4493 14.2914L85.3814 18.7859H87.4493L93 6.15858H90.8232ZM72.5385 14.7195H74.6064V1.34308H72.5385V14.7195Z" fill="#F1F2FC" stroke="#F1F2FC" stroke-width="11.8519" mask="url(#path-1-inside-1_583_60)"/>
  </symbol>

</defs>
</svg>