<svg aria-hidden="true" style="position: absolute; width: 0; height: 0; overflow: hidden;" version="1.1" xmlns="http://www.w3.org/2000/svg" xmlns:xlink="http://www.w3.org/1999/xlink">
<defs>
<symbol id="burger" viewBox="0 0 32 32" >
<path d="M4 8H28M4 16H28M4 24H28" stroke="#381C4F" stroke-width="3" stroke-linecap="round" stroke-linejoin="round"></path>
</symbol>
<symbol id="cross" viewBox="0 0 32 32" >
<path d="M17.8758 16L25.2056 23.3276L25.2056 23.3276L25.1349 23.3984C25.3652 23.6283 25.4946 23.9404 25.4948 24.2659C25.495 24.5913 25.3659 24.9035 25.136 25.1338C24.906 25.3641 24.5939 25.4936 24.2684 25.4938C23.943 25.494 23.6308 25.3649 23.4005 25.1349L17.8758 16ZM17.8758 16L25.2056 8.67231C25.3289 8.54914 25.4267 8.4029 25.4935 8.24192C25.5603 8.08094 25.5947 7.90839 25.5948 7.7341C25.595 7.55982 25.5607 7.38722 25.4941 7.22616C25.4275 7.0651 25.3299 6.91873 25.2067 6.79542C25.0835 6.6721 24.9373 6.57426 24.7763 6.50746C24.6153 6.44067 24.4428 6.40623 24.2685 6.40613C24.0942 6.40602 23.9216 6.44024 23.7606 6.50684C23.5995 6.57343 23.4531 6.6711 23.3298 6.79426L23.3298 6.79431L16 14.1241L8.67227 6.79432L8.67226 6.79431C8.42323 6.54528 8.08547 6.40537 7.73329 6.40537C7.3811 6.40537 7.04334 6.54528 6.79431 6.79431C6.54528 7.04334 6.40537 7.3811 6.40537 7.73329C6.40537 8.08547 6.54528 8.42323 6.79431 8.67226L6.79432 8.67227L14.1241 16L6.79432 23.3276L6.79431 23.3276C6.671 23.451 6.57319 23.5973 6.50645 23.7584C6.43972 23.9196 6.40537 24.0922 6.40537 24.2666C6.40537 24.441 6.43972 24.6137 6.50645 24.7748C6.57319 24.9359 6.671 25.0823 6.79431 25.2056C7.04334 25.4546 7.3811 25.5945 7.73329 25.5945C7.90767 25.5945 8.08035 25.5602 8.24146 25.4935C8.40257 25.4267 8.54896 25.3289 8.67226 25.2056L8.67227 25.2056L16 17.8758L17.8758 16Z" fill="#D1D2F4" stroke="#D1D2F4" stroke-width="0.2" />
</symbol>
<symbol id="google-play-text" viewBox="0 0 93 30" >
<path d="M7.77979 4.53136C7.77979 5.38745 7.56211 6.13653 7.01792 6.67158C6.3649 7.31365 5.60303 7.63468 4.62349 7.63468C3.64395 7.63468 2.88208 7.31365 2.22905 6.67158C1.57602 6.02952 1.24951 5.28044 1.24951 4.31734C1.24951 3.35424 1.57602 2.60517 2.22905 1.9631C2.88208 1.32103 3.64395 1 4.62349 1C5.05884 1 5.49419 1.10701 5.92954 1.32103C6.3649 1.53505 6.69141 1.74908 6.90908 2.07011L6.36489 2.60516C5.92954 2.07011 5.38535 1.85609 4.62349 1.85609C3.97046 1.85609 3.31743 2.07011 2.88208 2.60516C2.33789 3.03321 2.12021 3.67528 2.12021 4.42435C2.12021 5.17343 2.33789 5.8155 2.88208 6.24354C3.42627 6.67158 3.97046 6.99262 4.62349 6.99262C5.38535 6.99262 5.92954 6.77859 6.47373 6.24354C6.80025 5.92251 7.01792 5.49446 7.01792 4.95941H4.62349V4.10332H7.77979V4.53136ZM12.7863 1.85609H9.84771V3.8893H12.5687V4.63837H9.84771V6.67158H12.7863V7.52767H8.97701V1.10701H12.7863V1.85609ZM16.378 7.52767H15.5073V1.85609H13.657V1.10701H18.2282V1.85609H16.378V7.52767ZM21.3845 7.52767V1.10701H22.2552V7.52767H21.3845ZM25.9557 7.52767H25.085V1.85609H23.2348V1.10701H27.6971V1.85609H25.8469V7.52767H25.9557ZM36.2953 6.67158C35.6423 7.31365 34.8805 7.63468 33.9009 7.63468C32.9214 7.63468 32.1595 7.31365 31.5065 6.67158C30.8534 6.02952 30.5269 5.28044 30.5269 4.31734C30.5269 3.35424 30.8534 2.60517 31.5065 1.9631C32.1595 1.32103 32.9214 1 33.9009 1C34.8805 1 35.6423 1.32103 36.2953 1.9631C36.9484 2.60517 37.2749 3.35424 37.2749 4.31734C37.2749 5.28044 36.9484 6.02952 36.2953 6.67158ZM32.1595 6.13653C32.5949 6.56457 33.2479 6.8856 33.9009 6.8856C34.5539 6.8856 35.207 6.67158 35.6423 6.13653C36.0777 5.70848 36.4042 5.06642 36.4042 4.31734C36.4042 3.56826 36.1865 2.9262 35.6423 2.49815C35.207 2.07011 34.5539 1.74908 33.9009 1.74908C33.2479 1.74908 32.5949 1.9631 32.1595 2.49815C31.7241 2.9262 31.3976 3.56826 31.3976 4.31734C31.3976 5.06642 31.6153 5.70848 32.1595 6.13653ZM38.4721 7.52767V1.10701H39.4516L42.6079 6.13653V1.10701H43.4786V7.52767H42.6079L39.234 2.28413V7.52767H38.4721Z" fill="#381C4F" stroke="#381C4F" stroke-width="0.3" stroke-miterlimit="10"></path>
<path d="M30.3093 16.9447C27.6972 16.9447 25.6293 18.8709 25.6293 21.5462C25.6293 24.1144 27.6972 26.1476 30.3093 26.1476C32.9215 26.1476 34.9894 24.2214 34.9894 21.5462C34.9894 18.7639 32.9215 16.9447 30.3093 16.9447ZM30.3093 24.2214C28.8945 24.2214 27.6972 23.0443 27.6972 21.4391C27.6972 19.834 28.8945 18.6569 30.3093 18.6569C31.7242 18.6569 32.9215 19.727 32.9215 21.4391C32.9215 23.0443 31.7242 24.2214 30.3093 24.2214ZM20.1874 16.9447C17.5753 16.9447 15.5074 18.8709 15.5074 21.5462C15.5074 24.1144 17.5753 26.1476 20.1874 26.1476C22.7995 26.1476 24.8674 24.2214 24.8674 21.5462C24.8674 18.7639 22.7995 16.9447 20.1874 16.9447ZM20.1874 24.2214C18.7725 24.2214 17.5753 23.0443 17.5753 21.4391C17.5753 19.834 18.7725 18.6569 20.1874 18.6569C21.6023 18.6569 22.7995 19.727 22.7995 21.4391C22.7995 23.0443 21.6023 24.2214 20.1874 24.2214ZM8.1064 18.3358V20.262H12.7864C12.6776 21.3321 12.2422 22.1882 11.6981 22.7233C11.045 23.3653 9.95665 24.1144 8.1064 24.1144C5.16778 24.1144 2.99102 21.8672 2.99102 18.9779C2.99102 16.0886 5.27662 13.8414 8.1064 13.8414C9.63014 13.8414 10.8274 14.4834 11.6981 15.2325L13.1129 13.8414C11.9157 12.7712 10.392 11.9152 8.21524 11.9152C4.29707 11.9152 0.923096 15.1255 0.923096 18.9779C0.923096 22.8303 4.29707 26.0406 8.21524 26.0406C10.392 26.0406 11.9157 25.3985 13.2218 24.0074C14.5278 22.7233 14.9632 20.9041 14.9632 19.5129C14.9632 19.0849 14.9632 18.6569 14.8544 18.3358H8.1064ZM57.5188 19.834C57.0835 18.7639 55.9951 16.9447 53.6007 16.9447C51.2062 16.9447 49.2472 18.7639 49.2472 21.5462C49.2472 24.1144 51.2062 26.1476 53.8183 26.1476C55.8863 26.1476 57.1923 24.8635 57.6277 24.1144L56.1039 23.0443C55.5598 23.7934 54.9067 24.3284 53.8183 24.3284C52.73 24.3284 52.0769 23.9004 51.5327 22.9373L57.7365 20.369L57.5188 19.834ZM51.2062 21.3321C51.2062 19.62 52.6211 18.6569 53.6007 18.6569C54.3625 18.6569 55.1244 19.0849 55.3421 19.62L51.2062 21.3321ZM46.0909 25.7196H48.1588V12.3432H46.0909V25.7196ZM42.8257 17.9078C42.2815 17.3727 41.4108 16.8377 40.3224 16.8377C38.0368 16.8377 35.8601 18.8709 35.8601 21.4391C35.8601 24.0074 37.928 25.9336 40.3224 25.9336C41.4108 25.9336 42.2815 25.3985 42.7169 24.8635H42.8257V25.5056C42.8257 27.2177 41.8462 28.1808 40.3224 28.1808C39.1252 28.1808 38.2545 27.3247 38.0368 26.5757L36.2954 27.3247C36.8396 28.5019 38.1457 30 40.4313 30C42.8257 30 44.7848 28.6089 44.7848 25.2915V17.1587H42.8257V17.9078ZM40.4313 24.2214C39.0164 24.2214 37.8192 23.0443 37.8192 21.4391C37.8192 19.834 39.0164 18.6569 40.4313 18.6569C41.8462 18.6569 42.9345 19.834 42.9345 21.4391C42.9345 23.0443 41.8462 24.2214 40.4313 24.2214ZM66.9877 12.3432H62.09V25.7196H64.158V20.6901H66.9877C69.2733 20.6901 71.4501 19.0849 71.4501 16.5166C71.4501 13.9484 69.2733 12.3432 66.9877 12.3432ZM67.0966 18.7639H64.158V14.1624H67.0966C68.6203 14.1624 69.491 15.4465 69.491 16.4096C69.3822 17.5867 68.5115 18.7639 67.0966 18.7639ZM79.6129 16.8377C78.0892 16.8377 76.5655 17.4797 76.0213 18.8709L77.8715 19.62C78.3069 18.8709 78.9599 18.6569 79.7218 18.6569C80.8102 18.6569 81.7897 19.2989 81.8985 20.369V20.476C81.572 20.262 80.7013 19.941 79.8306 19.941C77.8715 19.941 75.9125 21.0111 75.9125 22.9373C75.9125 24.7565 77.545 25.9336 79.2864 25.9336C80.7013 25.9336 81.3544 25.2915 81.8985 24.6495H82.0074V25.7196H83.9665V20.5831C83.7488 18.2288 81.8985 16.8377 79.6129 16.8377ZM79.3953 24.2214C78.7422 24.2214 77.7627 23.9004 77.7627 23.0443C77.7627 21.9742 78.9599 21.6532 79.9395 21.6532C80.8102 21.6532 81.2455 21.8672 81.7897 22.0812C81.572 23.3653 80.4836 24.2214 79.3953 24.2214ZM90.8232 17.1587L88.5377 22.9373H88.4288L86.0344 17.1587H83.8576L87.4493 25.2915L85.3814 29.786H87.4493L93 17.1587H90.8232ZM72.5385 25.7196H74.6064V12.3432H72.5385V25.7196Z" fill="#381C4F"></path>
</symbol>

<symbol id="google-play-text-white" viewBox="0 0 93 30" >
<path d="M7.77979 4.53136C7.77979 5.38745 7.56211 6.13653 7.01792 6.67158C6.3649 7.31365 5.60303 7.63468 4.62349 7.63468C3.64395 7.63468 2.88208 7.31365 2.22905 6.67158C1.57602 6.02952 1.24951 5.28044 1.24951 4.31734C1.24951 3.35424 1.57602 2.60517 2.22905 1.9631C2.88208 1.32103 3.64395 1 4.62349 1C5.05884 1 5.49419 1.10701 5.92954 1.32103C6.3649 1.53505 6.69141 1.74908 6.90908 2.07011L6.36489 2.60516C5.92954 2.07011 5.38535 1.85609 4.62349 1.85609C3.97046 1.85609 3.31743 2.07011 2.88208 2.60516C2.33789 3.03321 2.12021 3.67528 2.12021 4.42435C2.12021 5.17343 2.33789 5.8155 2.88208 6.24354C3.42627 6.67158 3.97046 6.99262 4.62349 6.99262C5.38535 6.99262 5.92954 6.77859 6.47373 6.24354C6.80025 5.92251 7.01792 5.49446 7.01792 4.95941H4.62349V4.10332H7.77979V4.53136ZM12.7863 1.85609H9.84771V3.8893H12.5687V4.63837H9.84771V6.67158H12.7863V7.52767H8.97701V1.10701H12.7863V1.85609ZM16.378 7.52767H15.5073V1.85609H13.657V1.10701H18.2282V1.85609H16.378V7.52767ZM21.3845 7.52767V1.10701H22.2552V7.52767H21.3845ZM25.9557 7.52767H25.085V1.85609H23.2348V1.10701H27.6971V1.85609H25.8469V7.52767H25.9557ZM36.2953 6.67158C35.6423 7.31365 34.8805 7.63468 33.9009 7.63468C32.9214 7.63468 32.1595 7.31365 31.5065 6.67158C30.8534 6.02952 30.5269 5.28044 30.5269 4.31734C30.5269 3.35424 30.8534 2.60517 31.5065 1.9631C32.1595 1.32103 32.9214 1 33.9009 1C34.8805 1 35.6423 1.32103 36.2953 1.9631C36.9484 2.60517 37.2749 3.35424 37.2749 4.31734C37.2749 5.28044 36.9484 6.02952 36.2953 6.67158ZM32.1595 6.13653C32.5949 6.56457 33.2479 6.8856 33.9009 6.8856C34.5539 6.8856 35.207 6.67158 35.6423 6.13653C36.0777 5.70848 36.4042 5.06642 36.4042 4.31734C36.4042 3.56826 36.1865 2.9262 35.6423 2.49815C35.207 2.07011 34.5539 1.74908 33.9009 1.74908C33.2479 1.74908 32.5949 1.9631 32.1595 2.49815C31.7241 2.9262 31.3976 3.56826 31.3976 4.31734C31.3976 5.06642 31.6153 5.70848 32.1595 6.13653ZM38.4721 7.52767V1.10701H39.4516L42.6079 6.13653V1.10701H43.4786V7.52767H42.6079L39.234 2.28413V7.52767H38.4721Z" fill="#ffffff" stroke="#ffffff" stroke-width="0.3" stroke-miterlimit="10"></path>
<path d="M30.3093 16.9447C27.6972 16.9447 25.6293 18.8709 25.6293 21.5462C25.6293 24.1144 27.6972 26.1476 30.3093 26.1476C32.9215 26.1476 34.9894 24.2214 34.9894 21.5462C34.9894 18.7639 32.9215 16.9447 30.3093 16.9447ZM30.3093 24.2214C28.8945 24.2214 27.6972 23.0443 27.6972 21.4391C27.6972 19.834 28.8945 18.6569 30.3093 18.6569C31.7242 18.6569 32.9215 19.727 32.9215 21.4391C32.9215 23.0443 31.7242 24.2214 30.3093 24.2214ZM20.1874 16.9447C17.5753 16.9447 15.5074 18.8709 15.5074 21.5462C15.5074 24.1144 17.5753 26.1476 20.1874 26.1476C22.7995 26.1476 24.8674 24.2214 24.8674 21.5462C24.8674 18.7639 22.7995 16.9447 20.1874 16.9447ZM20.1874 24.2214C18.7725 24.2214 17.5753 23.0443 17.5753 21.4391C17.5753 19.834 18.7725 18.6569 20.1874 18.6569C21.6023 18.6569 22.7995 19.727 22.7995 21.4391C22.7995 23.0443 21.6023 24.2214 20.1874 24.2214ZM8.1064 18.3358V20.262H12.7864C12.6776 21.3321 12.2422 22.1882 11.6981 22.7233C11.045 23.3653 9.95665 24.1144 8.1064 24.1144C5.16778 24.1144 2.99102 21.8672 2.99102 18.9779C2.99102 16.0886 5.27662 13.8414 8.1064 13.8414C9.63014 13.8414 10.8274 14.4834 11.6981 15.2325L13.1129 13.8414C11.9157 12.7712 10.392 11.9152 8.21524 11.9152C4.29707 11.9152 0.923096 15.1255 0.923096 18.9779C0.923096 22.8303 4.29707 26.0406 8.21524 26.0406C10.392 26.0406 11.9157 25.3985 13.2218 24.0074C14.5278 22.7233 14.9632 20.9041 14.9632 19.5129C14.9632 19.0849 14.9632 18.6569 14.8544 18.3358H8.1064ZM57.5188 19.834C57.0835 18.7639 55.9951 16.9447 53.6007 16.9447C51.2062 16.9447 49.2472 18.7639 49.2472 21.5462C49.2472 24.1144 51.2062 26.1476 53.8183 26.1476C55.8863 26.1476 57.1923 24.8635 57.6277 24.1144L56.1039 23.0443C55.5598 23.7934 54.9067 24.3284 53.8183 24.3284C52.73 24.3284 52.0769 23.9004 51.5327 22.9373L57.7365 20.369L57.5188 19.834ZM51.2062 21.3321C51.2062 19.62 52.6211 18.6569 53.6007 18.6569C54.3625 18.6569 55.1244 19.0849 55.3421 19.62L51.2062 21.3321ZM46.0909 25.7196H48.1588V12.3432H46.0909V25.7196ZM42.8257 17.9078C42.2815 17.3727 41.4108 16.8377 40.3224 16.8377C38.0368 16.8377 35.8601 18.8709 35.8601 21.4391C35.8601 24.0074 37.928 25.9336 40.3224 25.9336C41.4108 25.9336 42.2815 25.3985 42.7169 24.8635H42.8257V25.5056C42.8257 27.2177 41.8462 28.1808 40.3224 28.1808C39.1252 28.1808 38.2545 27.3247 38.0368 26.5757L36.2954 27.3247C36.8396 28.5019 38.1457 30 40.4313 30C42.8257 30 44.7848 28.6089 44.7848 25.2915V17.1587H42.8257V17.9078ZM40.4313 24.2214C39.0164 24.2214 37.8192 23.0443 37.8192 21.4391C37.8192 19.834 39.0164 18.6569 40.4313 18.6569C41.8462 18.6569 42.9345 19.834 42.9345 21.4391C42.9345 23.0443 41.8462 24.2214 40.4313 24.2214ZM66.9877 12.3432H62.09V25.7196H64.158V20.6901H66.9877C69.2733 20.6901 71.4501 19.0849 71.4501 16.5166C71.4501 13.9484 69.2733 12.3432 66.9877 12.3432ZM67.0966 18.7639H64.158V14.1624H67.0966C68.6203 14.1624 69.491 15.4465 69.491 16.4096C69.3822 17.5867 68.5115 18.7639 67.0966 18.7639ZM79.6129 16.8377C78.0892 16.8377 76.5655 17.4797 76.0213 18.8709L77.8715 19.62C78.3069 18.8709 78.9599 18.6569 79.7218 18.6569C80.8102 18.6569 81.7897 19.2989 81.8985 20.369V20.476C81.572 20.262 80.7013 19.941 79.8306 19.941C77.8715 19.941 75.9125 21.0111 75.9125 22.9373C75.9125 24.7565 77.545 25.9336 79.2864 25.9336C80.7013 25.9336 81.3544 25.2915 81.8985 24.6495H82.0074V25.7196H83.9665V20.5831C83.7488 18.2288 81.8985 16.8377 79.6129 16.8377ZM79.3953 24.2214C78.7422 24.2214 77.7627 23.9004 77.7627 23.0443C77.7627 21.9742 78.9599 21.6532 79.9395 21.6532C80.8102 21.6532 81.2455 21.8672 81.7897 22.0812C81.572 23.3653 80.4836 24.2214 79.3953 24.2214ZM90.8232 17.1587L88.5377 22.9373H88.4288L86.0344 17.1587H83.8576L87.4493 25.2915L85.3814 29.786H87.4493L93 17.1587H90.8232ZM72.5385 25.7196H74.6064V12.3432H72.5385V25.7196Z" fill="#ffffff"></path>
</symbol>

<symbol  id="arrow-left" viewBox="0 0 40 40" >
<rect x="39.5" y="39.5" width="39" height="39" rx="19.5" transform="rotate(-180 39.5 39.5)" fill="#D1D2F4" fill-opacity=".5"/>
<rect x="39.5" y="39.5" width="39" height="39" rx="19.5" transform="rotate(-180 39.5 39.5)" stroke="#381C4F"/>
<path fill-rule="evenodd" clip-rule="evenodd" d="M16.762 15.92a1.126 1.126 0 1 0-1.59-1.59l-4.877 4.875L9.5 20l.795.795 4.875 4.875a1.125 1.125 0 0 0 1.592-1.59l-2.956-2.955h15.569a1.125 1.125 0 1 0 0-2.25H13.806l2.956-2.955Z" fill="#381C4F"/>
</symbol>
<symbol  id="arrow-right" viewBox="0 0 40 40"  >
<rect x=".5" y=".5" width="39" height="39" rx="19.5" fill="#D1D2F4" fill-opacity=".5"/>
<rect x=".5" y=".5" width="39" height="39" rx="19.5" stroke="#381C4F"/>
<path fill-rule="evenodd" clip-rule="evenodd" d="M23.238 24.08a1.126 1.126 0 1 0 1.59 1.59l4.877-4.875L30.5 20l-.795-.795-4.875-4.875a1.125 1.125 0 0 0-1.591 1.59l2.954 2.955H10.626a1.125 1.125 0 1 0 0 2.25h15.569l-2.956 2.955Z" fill="#381C4F"/>
</symbol>
</defs>
</svg>